<svg version="1.1" xmlns="http://www.w3.org/2000/svg" viewBox="0 0 954.6318005476986 608.485400246376" width="954.6318005476986" height="608.485400246376">
  <!-- svg-source:excalidraw -->
  
  <defs>
    <style>
      @font-face {
        font-family: "Virgil";
        src: url("https://excalidraw.com/Virgil.woff2");
      }
      @font-face {
        font-family: "Cascadia";
        src: url("https://excalidraw.com/Cascadia.woff2");
      }
    </style>
  </defs>
  <g stroke-opacity="0" fill-opacity="0" stroke-linecap="round" transform="translate(10 10) rotate(0 467.3159002738493 294.242700123188)"><path d="M-0.78 1.04 C327.45 2.86, 656.22 0, 933.76 -0.87 M-0.1 -0.77 C363.24 2.43, 726.49 3.47, 934.83 0.78 M935.92 -0.79 C940.42 207.06, 939.37 414.06, 933.18 588.16 M933.98 -0.71 C935.4 146.57, 934.56 293.81, 934.25 588.76 M935.52 588.27 C690.43 592.83, 446.14 594.07, 0.66 587.15 M934.78 588 C708.89 582.45, 482.85 581.48, 0.37 588.16 M-1.31 587.91 C-4.4 435.62, -3.12 282.48, 0.65 -0.65 M0.23 588.72 C-4.35 436.45, -3.31 283.02, 0.38 -0.42" stroke="#495057" stroke-width="1" fill="none"></path></g><g stroke-linecap="round" transform="translate(272.8626506249417 104.47820520024482) rotate(0 203.327392578125 170.05682373046875)"><path d="M0 0 C0 0, 0 0, 0 0 M0 0 C0 0, 0 0, 0 0 M0.2 7.58 C0.68 3.59, 3.07 2.4, 5.32 0.11 M-1.04 6.77 C0.28 4.12, 1.47 2.69, 5.19 -0.3 M-0.32 11.17 C3.84 6.45, 6.19 2.35, 12.98 0.79 M-0.11 11.2 C1.83 8.66, 4.23 4.73, 10.54 -1.24 M-0.4 20.13 C5.46 13.5, 10.97 13.32, 12.35 1.12 M-0.39 18.29 C3.38 10.56, 10.29 7.89, 13.73 0.51 M3.98 27.29 C8.74 15.1, 16.84 12.06, 23.76 1.42 M-0.66 22.63 C4.93 18.25, 10.23 13.21, 22.29 -1.39 M-0.11 32.54 C8.12 19.68, 13.84 8.25, 28.6 -2.08 M1.44 28.89 C10.81 18.9, 19.15 9.03, 28.07 1.39 M2.37 33.39 C10.5 27.09, 25.57 13.07, 35.13 0.26 M1.61 35.57 C11.04 24.23, 21.26 12.37, 33.37 -2.07 M3.26 43.97 C12.71 27.64, 20.14 19.17, 40.83 -1.23 M-0.62 40.61 C10.73 32.01, 19.71 20.36, 38.21 -0.78 M0.3 50.37 C16.43 32.73, 25.57 14.48, 44.66 -0.6 M0.64 47.15 C10.36 38.58, 19.46 26.07, 42.06 -0.33 M0.69 54.29 C16.95 33.18, 25.91 22.7, 48.78 -1.2 M-1.27 53.71 C16.69 36, 32.82 16.71, 47.1 -1.37 M-1.14 64.12 C10.42 46.62, 24.15 35.54, 54.83 3.23 M1.7 59.76 C14.92 43.03, 31.38 25.03, 51.94 -2.17 M-3.97 66.64 C22.09 42.46, 36.21 25.81, 57.68 3.64 M1.4 67.93 C12.2 52, 24.39 37.71, 58.92 -1.03 M-2.72 70.29 C20.2 47.9, 42.74 23.08, 65.65 2.62 M0 73.77 C27.1 43.24, 51.29 17.9, 63.81 1.15 M0.56 76.4 C14.6 59.59, 31.54 43.55, 70.29 -2.58 M0.53 79.51 C20.44 53.2, 44.17 28.28, 67.11 -1.61 M0.3 82.99 C22.06 60.54, 41.39 33, 74.61 -1.04 M-0.03 84.29 C16.05 64.39, 31.44 47.59, 75.76 1.12 M-2.86 91.7 C13.66 75.29, 35.83 55.97, 78.84 -1.21 M0.52 89.7 C21.65 64.39, 47.22 39.87, 78.38 1.74 M1.53 95.61 C25.16 69.33, 51.02 38.31, 84.69 -3.87 M-1.35 97.96 C24.59 69.06, 49.61 42.73, 83.08 0 M-1.25 106.43 C29.91 67.16, 68.22 26.98, 89.08 -3.14 M-0.31 101.75 C20.74 81.88, 41.05 58.84, 88.66 0.64 M2 109.79 C17.85 89.31, 42.6 60.84, 96.39 0.51 M0.3 109.89 C17.31 86.63, 38.88 66.66, 94.35 -1.22 M-0.11 116.96 C33.82 72.91, 76.25 32.66, 104.24 -0.72 M1.6 113.65 C25.52 85.6, 56.12 55.17, 99.13 1.48 M-1.7 123.9 C37.16 69.79, 80.93 20.83, 107.7 -3.01 M0.44 120.2 C34.4 83.35, 70.6 43.44, 107.39 1.21 M-0.11 130.94 C27.87 92.94, 49.11 67.57, 109.07 0.17 M-1.58 126.9 C22.65 98.6, 48.39 71.1, 112.25 1.37 M1.18 130.08 C30.7 92.96, 70.34 56.67, 113.46 -2.29 M0.52 135.01 C37.5 89.79, 78.8 41.68, 116.61 -1.47 M-2.44 140.24 C25.7 111.3, 49.83 74.55, 125.82 -3.83 M1.53 139.49 C29.93 105.24, 58.23 71.94, 123.7 0.18 M2.88 146.97 C46.41 93.64, 94.74 39.45, 123.98 -0.96 M-0.77 147.2 C42.25 99.52, 82.31 53.59, 127.63 -1.52 M2.9 149.8 C32.89 122.12, 59.85 85.79, 134.05 2.16 M1.42 150.63 C33.1 114.22, 66.34 78.7, 134.23 0.47 M0.4 156.72 C47.57 108.48, 95.69 52.17, 137.13 1.9 M-0.16 157.33 C52.64 99.22, 104.01 41.59, 137.38 1.64 M1.23 165.01 C56.57 104.99, 111.42 38.63, 143.48 -3.02 M-0.72 164.66 C37.23 121.14, 72.65 82.1, 142.7 -0.19 M-1.26 172.38 C39.3 123.83, 76.09 79.69, 148.67 1.59 M0.76 169.85 C31.64 128.91, 67.78 89.21, 148.56 -0.57 M-1.61 179.37 C57.93 109.52, 115.99 44.09, 152.67 -1.15 M0.07 177.81 C36.75 134.07, 76.88 90.87, 155.43 -1.63 M-2.35 182.5 C54.57 117.36, 115.4 56.96, 160.22 2.96 M0.13 182.74 C55.42 116.37, 112.44 53.63, 157.71 0.36 M-3.29 189.94 C48.75 132.44, 96.06 76.52, 165.12 -0.49 M-1.13 189.66 C57.89 125.21, 114.8 59.89, 166.06 -1.42 M2.09 197.76 C60.43 124.07, 127.18 48.5, 170.96 -0.66 M1.08 195.88 C50.13 137.88, 99.45 77.18, 169.3 1.13 M-1.9 200.28 C48.44 147.24, 96.17 90.73, 175.58 -0.07 M0.5 199.89 C67.07 122.89, 134.32 44.6, 176.33 -1.6 M1.99 204.54 C52.8 152.08, 103.73 90.27, 178.23 -0.73 M1.07 208.14 C74.27 126.01, 144.08 42.59, 178.86 0.96 M0.52 211.39 C69.84 135.39, 142.26 56.84, 183.67 -3.17 M-0.8 212.39 C65.97 134.69, 134.63 57.03, 185.66 1.2 M-1.91 217.68 C64.23 145.07, 135.74 63.55, 189.9 0.07 M1.17 218.42 C56.91 156.22, 116.01 88.58, 189.48 1.26 M0.92 225.34 C47.99 169.99, 92.54 112.47, 198.99 0.96 M0.26 226.01 C36.92 178.57, 76.57 131.48, 197.4 0.15 M2.67 232.31 C62.86 161.58, 120.86 90.09, 199.36 1.21 M-0.65 231.34 C42.56 184.43, 81.45 137.06, 201.8 -0.55 M0.56 239.95 C55.3 175.77, 108.46 116.34, 205.37 0.66 M0.67 236.02 C75.49 151.66, 151.26 63.42, 206.85 -0.21 M0.5 242.42 C63.65 168.65, 131.57 94.58, 210.32 -1.62 M1.25 243.74 C46.85 188.84, 97.24 131.15, 211.7 0.79 M-1.83 250.37 C85.05 145.85, 172.26 45.24, 219.95 -1.46 M0.73 249.2 C54.55 193.04, 107.18 129.96, 216.25 0.49 M-1.16 254.61 C45.37 204.32, 90.23 151.11, 224.28 0.32 M-0.26 256.76 C61 185.96, 121.99 119.16, 221.81 0.93 M-1.83 262.44 C86.33 171.08, 163.05 74.33, 229.55 -1.49 M0.76 263.11 C91.93 160.07, 179.62 58.05, 228.37 -0.91 M2.28 265.86 C70.36 191.18, 137.98 112.83, 235.75 0.62 M-0.17 268 C73.83 188.91, 142.11 109.94, 232.64 0.48 M0.97 274.68 C62.07 199.2, 125.72 128.64, 235.79 1.16 M0.09 274.38 C60.85 204.99, 123.13 132.16, 238.1 0.44 M-2.28 280.79 C86.93 181.79, 172.47 82.44, 243.46 0.32 M0.96 280.33 C67.33 199.38, 137.78 118.34, 242.93 -0.8 M1.09 286.71 C75.94 196.66, 156.14 106.7, 250.11 1.51 M-0.56 286.05 C70.64 206.63, 142.88 124.81, 248.59 0.91 M-1.89 293.2 C96.92 174.49, 201.02 59.19, 254.36 1.78 M0.5 293.32 C73.45 205.97, 148.1 119.11, 254.69 0.86 M1.73 299.63 C98.51 190.41, 193.45 79.89, 260.41 -1.14 M0.15 297.64 C58.04 235.45, 111.47 173.62, 259.13 1.04 M2.1 305.82 C82.79 202.09, 172.45 106.45, 263.83 -0.62 M-0.27 305.63 C93.74 196.32, 189.08 87.98, 265.79 -1.08 M-0.86 312.08 C89.93 203.64, 182.18 97.11, 268.98 2.18 M-1.05 311 C87.58 214.65, 171.39 118.64, 270.37 -0.01 M-0.82 317.35 C77.13 225.36, 158.38 133.97, 275.27 -1.63 M0.95 317.02 C59.71 249.1, 120.63 177.22, 275.15 0.14 M-0.82 322.16 C69.7 248.12, 134.61 171.55, 280.63 -0.75 M-0.17 322.8 C64.4 251.18, 126.73 179.42, 281.4 0.58 M-0.18 328.01 C91.6 226.31, 176.54 128.15, 286.12 0.31 M0.54 328.69 C111.34 202.96, 221.06 76.73, 286.61 -0.75 M-0.34 335.49 C87.13 239.06, 169.42 144.95, 290.11 1.16 M0.99 335.62 C89.26 233.93, 178.88 130.42, 292.09 0.56 M-0.21 339.21 C70.63 256.33, 145.01 169.59, 296.93 -0.12 M0.04 341.03 C83.6 242.95, 166.78 148.56, 296.17 -0.92 M7.88 339.09 C125.75 207.42, 241.6 70.49, 303.27 -0.72 M6.08 339.81 C84.07 250.03, 161.87 160.61, 301.04 -0.68 M12.36 341.15 C89.22 253.02, 165.16 165.46, 307 1.33 M11.79 341.73 C90.97 251.7, 171.11 162.32, 308.51 -0.48 M15.08 341.48 C120.55 224.08, 222.43 102.74, 312.91 -1.62 M16.05 341.26 C111.68 231.99, 206.94 122.68, 313.14 -0.53 M20.94 341.93 C125.92 222.55, 227.61 103.49, 318.24 -1.65 M22.02 340.18 C95.18 253.36, 170.96 165.77, 317.3 -0.01 M27.27 340.68 C141.28 211.58, 252.47 80.87, 322.32 0.44 M27.18 341.28 C104.13 251.1, 183.74 159.2, 322.34 -0.88 M33.55 342.58 C143.73 210.84, 255.7 81, 327.54 1.19 M31.89 340.75 C119.53 237.95, 207.32 136.03, 328.33 -0.71 M38.43 342.15 C150.07 210.5, 263.52 86.15, 333.54 0.94 M37.09 341.07 C99.71 268.86, 160.84 199.28, 334.75 -0.34 M41.69 341.49 C123.44 243.74, 205.25 150.09, 338.25 -1.72 M43.19 341.46 C149.64 216.07, 257.22 92.14, 340.3 -0.54 M49.03 341.02 C138.8 237.74, 227.91 135.62, 343.56 0.42 M47.85 341.23 C165.55 206.95, 282.08 73.84, 343.6 -0.06 M54.82 342.07 C123.26 262.98, 191.01 185.55, 348.02 -0.81 M54.44 341.66 C162.07 215.47, 273.74 88.08, 349.96 0.78 M58.35 341.34 C172.88 212.53, 288.42 78.6, 355.86 0.65 M58.29 339.82 C122.51 268.44, 184.13 196.5, 354.27 0.15 M65.86 341.27 C152.62 242.66, 238.59 140.91, 359.14 0.93 M64.77 340.07 C181.92 205.88, 298.07 73.94, 360.45 0.64 M68.31 340.64 C155.22 238.34, 247.08 135.44, 365.02 0.71 M69.76 340.1 C183.84 211.83, 297.49 79.1, 365.06 -0.15 M74.2 341.08 C189.86 209.44, 305.24 77.39, 370.7 0.11 M73.91 340.6 C135.53 271.28, 196.1 202.39, 371.62 0.04 M78.98 342.26 C141.78 268.97, 203.58 199.94, 375.97 0.91 M79.73 341.62 C192.02 213.72, 302.87 82.98, 376.77 -0.05 M85.73 340.83 C168.3 243.58, 254.94 144.77, 381.26 1.48 M86.05 340.78 C185.12 226.52, 286.2 109.5, 380.74 0.55 M91.17 340.79 C179.36 238.13, 270.52 136.57, 388.59 -1.08 M90.13 341.06 C207.51 205.19, 324.09 71.79, 386.98 0.74 M97.44 341.07 C165.48 259.61, 236.61 181.29, 392.01 -0.55 M96.35 341.4 C177.89 243.58, 259.19 150.12, 391.46 -0.73 M102.54 341.98 C175.62 250.77, 254.79 159.85, 397.71 1.28 M101.54 340.62 C205.77 216.87, 313.41 93.51, 397.7 0.01 M105.12 339.7 C206 224.17, 305.54 112.51, 402.95 1.18 M106.33 340.71 C166.61 271.23, 229.72 199.11, 402.23 0.42 M110.22 340.48 C176.52 268.2, 242.22 190.98, 407.83 1.13 M111.96 341.13 C217.56 218.27, 324.44 94.38, 407.04 1.44 M118.78 339.65 C217.25 226.09, 317.9 111.17, 406.95 6.4 M118.17 340.19 C202.04 244.67, 286.32 146.8, 408.18 6.68 M121.6 339.79 C233.34 211.1, 342.68 85.83, 405.94 14.22 M121.86 340.91 C179.88 271.2, 237.74 204.11, 407.08 12.16 M127.83 341.37 C217.81 243.51, 301.87 146.19, 406.75 19.43 M128.81 340.81 C183.29 274.35, 238.45 210.08, 408.36 19.63 M131.35 340.99 C240.45 215.3, 353.54 86.04, 408.23 24.41 M132.38 341.61 C203.28 262.16, 269.36 185.1, 407.07 25.32 M140.19 342.48 C218.08 249.99, 300.01 157.03, 407.26 30.07 M139.69 340.89 C234.6 228.8, 330.56 118.5, 407.48 30.35 M145.11 342.36 C248.2 219.36, 354.05 102.03, 409.6 38.41 M143.38 339.97 C241.07 230.72, 338.15 119.9, 406.82 36.53 M150.17 341.5 C221.25 253.92, 293.86 173.83, 407.46 43.08 M148.64 339.97 C232.98 249.88, 311.66 156.93, 408.74 42.96 M154.02 338.52 C240.05 236.34, 328.19 135.66, 409.56 49.49 M155.41 340.81 C251.57 228.4, 352.1 114.23, 406.99 49.39 M159.07 338.19 C226.73 266.2, 291.3 191.27, 408.72 56.77 M161.1 341.61 C246.22 236.94, 333.84 136.62, 406.4 55.19 M165.71 339.46 C243.47 250.81, 320.97 163.39, 406.82 60.08 M164.96 341.72 C232.94 260.51, 301.69 183.05, 407.45 61.58 M171.96 338.98 C246.73 249.81, 323.47 162.32, 408.19 68.28 M171.67 339.14 C246.59 252.85, 325.7 162.37, 406.62 68.68 M177.33 343.2 C224.92 282.28, 273.01 226.63, 408.59 74.73 M176.38 341.56 C250.35 251.23, 329.31 160.95, 408.84 74.7 M182.62 342.54 C227.59 279.6, 280.72 225.2, 409.12 78.42 M180.06 339.66 C272.06 234.88, 361.61 132.57, 407.41 79.17 M183.83 338.26 C269.13 238.46, 353.86 137.85, 404.9 85.07 M184.94 340.86 C235.64 287.87, 279.65 236.46, 406.73 85.17 M192.31 338.74 C268.01 255.02, 339.03 169.37, 408.98 94.49 M191.63 340.47 C246.86 275.39, 305.95 208.06, 408.01 90.91 M194.34 340.94 C260.84 271.97, 325.84 199.65, 406.78 97.42 M197.13 339.38 C248.37 278.35, 301.87 219.18, 407.25 99.52 M202.85 343.67 C274.17 256.56, 350.1 176.41, 408.68 103.95 M201.39 340.79 C278.14 252.45, 356.18 163.32, 408.45 105.12 M206.11 342.99 C248.79 287.07, 300.55 235.45, 405.63 111.9 M206.93 341.73 C286.65 253.69, 363.73 164.37, 407.61 109.54 M212.29 339.01 C285.99 251.57, 360.17 167.09, 406.82 118.5 M211.08 341.32 C270.97 269.82, 334.76 199.75, 406.07 117.11 M220.01 342.75 C288.83 260.91, 351.45 185.25, 408.43 123.57 M217.3 340.29 C265.31 281.53, 317.79 222.18, 406.23 121.96 M223.39 341.36 C260.63 296.2, 305.01 244.33, 408.05 126.7 M224.51 341 C293.83 257.14, 367.62 175.4, 406.97 130.38 M228.87 340.25 C276.26 283.82, 324.15 226.47, 408.79 134.95 M229.51 340.84 C275.43 284.2, 325.15 229.1, 408.52 134.23 M230.98 340.13 C294.49 269.06, 353.85 204.83, 407.21 138.92 M234.31 340.85 C278.69 285.36, 326.42 229.43, 407.47 140.95 M241.79 337.56 C284.25 286.57, 334.33 230.86, 409.6 145.24 M239.6 339.37 C295.73 274.52, 351.88 208.32, 408.14 146.39 M246.76 338.3 C281.8 300.09, 313.21 257.21, 410.22 155.07 M242.89 340.97 C304.1 276.06, 358.65 211.64, 408.4 152.23 M247.11 339.2 C302.56 283.19, 354.43 221.66, 407.49 159.97 M250.72 340.25 C301.08 285.29, 351.42 228.63, 407.57 158.38 M254.86 341.45 C293.72 296.61, 338.99 250, 408.18 163.62 M254.11 340.44 C304.68 278.9, 356.58 219.8, 408.36 163.66 M263.86 338.59 C295.54 298.76, 325.94 260.84, 408.1 169.33 M260.67 340.49 C288.22 304.36, 321.36 268.75, 408.62 171.57 M263.01 344.06 C309.34 284.56, 356.19 238.06, 409.06 175.35 M266.45 340.61 C314.23 284.84, 360.98 231.12, 406.24 177.75 M268.75 337.65 C305.89 304.38, 333.77 267.7, 409.26 184.89 M271.61 339.14 C320.57 283.67, 368.37 228.08, 408.07 181.95 M277.74 342.14 C311.35 301.63, 348.75 262.42, 407.33 188.02 M275.67 341.88 C316.97 292.13, 359.11 245.75, 407.54 190.24 M284.65 340.84 C320.76 295.02, 360.82 246.65, 406.06 192.48 M283.62 341.38 C309.92 307.75, 338.71 276.86, 407 194.81 M289.43 340.96 C320.63 302.8, 353.3 261.81, 407.08 203.97 M285.52 339.76 C317.36 304.48, 346.43 272.16, 406.27 201.3 M288.52 340.3 C319.33 309.67, 338.64 285.18, 405.57 210.59 M293.63 340.21 C321.59 307.67, 348.13 277.81, 407.48 208.36 M299.41 341.17 C319 317.61, 346.42 286.05, 411.58 211.32 M297.97 339.72 C340.6 289.25, 382.61 239.69, 409.56 213.03 M301.05 337.55 C328.93 308.61, 350.44 278.35, 407.04 219.04 M304 338.7 C340.26 299.54, 373.73 257.98, 406.81 220.52 M307.62 338.07 C344.23 304.19, 374.56 268.12, 405.34 224.26 M307.91 342.5 C345.82 298.32, 387.68 252.32, 405.98 226.47 M316.08 337.75 C346.18 305.52, 374.33 271.97, 405.07 234.2 M313.66 339.62 C333.79 316.91, 357.06 292.07, 405.53 230.43 M319.28 337.28 C350.12 303.61, 379.6 269.27, 409.67 236.43 M319.54 339.48 C350.28 302.07, 383.4 263.09, 408.7 238.12 M326.91 338.26 C353.34 303.26, 390.14 267.73, 408.4 242.21 M324.72 342.19 C349.26 310.12, 377.25 282.05, 406.08 243.19 M329.14 338.93 C358.82 309.58, 387.5 274.84, 405.39 249.7 M330.29 340.77 C350.42 314.34, 372.39 290.86, 406.1 248.97 M330.37 341.21 C358.21 313.57, 378.34 286.44, 407.26 255.71 M334.59 342.67 C361.71 311.38, 387.57 279.42, 408.15 254.7 M337.45 337.66 C354.77 321.73, 367.88 304.38, 408.83 262.71 M338.87 339.25 C360.98 317.19, 378.02 296.21, 405.83 261.03 M345.46 342.5 C360.8 319.67, 374.21 302.39, 404.74 266.58 M346.6 339.3 C362.6 319.92, 380 301.73, 408.03 268.31 M349.95 338.6 C363.23 323.06, 378.84 308.3, 410.48 275.84 M349.2 338.54 C368.81 316.58, 391.38 291.74, 409.46 274.28 M356.67 340.5 C376.41 321.53, 387.44 307.62, 403.41 282.94 M357.31 341.09 C370.61 323.52, 388.15 305.24, 409.22 279.89 M361.87 341.38 C369.93 326.32, 383.67 320.05, 406.34 283.97 M362.49 341 C373.8 326.43, 385.68 310.52, 407.82 287.47 M369.99 344.1 C382.65 325.75, 392.29 309.86, 409.33 293.69 M364.53 339.77 C383.33 323.06, 399.03 304.1, 406.5 294.32 M373.96 340.14 C384.09 330.41, 394.65 315.01, 405.24 301.25 M373.16 339.77 C386.78 326.29, 399.73 306.78, 408.3 298.86 M372.92 340.68 C384.4 330.24, 391.33 321.7, 410.77 305.45 M375.33 341.84 C384.5 328.96, 394.93 321.85, 408.57 306.46 M384.47 339.51 C386.25 333.11, 397.66 322.08, 407.49 310.03 M380.93 338.7 C391.53 330.67, 401.46 319.55, 405.54 311.18 M390.44 344.12 C389.05 333.4, 399.31 329.1, 409.45 319.36 M386.04 340.54 C392.44 334.01, 395.8 329.92, 409.37 317.95 M389.13 338.63 C397.63 337.01, 398.69 331, 408.92 321.47 M394.71 340.43 C398.71 337.94, 402.57 331.11, 409.45 324.17 M397.36 339.4 C400.85 336.14, 403.44 336.7, 404.96 331.32 M398.17 340.15 C401.79 336.92, 403.28 334.25, 407.39 329.99 M404.17 339.99 C404.69 338.47, 406.95 338.18, 408.83 334.82 M404.03 340.95 C404.95 339.05, 406.94 337.41, 407.72 335.76" stroke="#ced4da" stroke-width="0.5" fill="none"></path><path d="M1.39 1.81 C107.72 -2.15, 220.53 -0.9, 408.76 0.47 M1.01 -0.06 C86 -0.38, 172.12 0.05, 406.57 0.98 M405.5 0.87 C406.55 102.81, 405.36 206.96, 407.18 340.6 M407.18 1.15 C407.82 134.43, 405.52 271.65, 406.08 338.92 M407.39 339.73 C293.98 340.43, 179.4 340.01, -0.65 340.3 M405.89 339.9 C263.37 343.03, 118.48 343.94, 0.27 340.34 M0.1 342.07 C3.56 211.74, 2.53 83.64, 1.29 2.15 M1.07 339.37 C-3.18 206.12, -4.05 71.41, 0.39 0.32" stroke="#000000" stroke-width="1" fill="none"></path></g><g transform="translate(412.6988322655667 265.2445626221198) rotate(0 62.5 12)"><text x="0" y="17" font-family="Virgil, Segoe UI Emoji" font-size="16px" fill="#000000" text-anchor="start" style="white-space: pre;" direction="ltr">显示区域 bounds</text></g><g transform="translate(199.70951341791044 70.41216516118232) rotate(0 109.5 12)"><text x="0" y="17" font-family="Virgil, Segoe UI Emoji" font-size="16px" fill="#000000" text-anchor="start" style="white-space: pre;" direction="ltr">startPoint.lng，endPoint.lat</text></g><g transform="translate(232.7336223046292 455.6359200439948) rotate(0 43 10.5)"><text x="0" y="15" font-family="Virgil, Segoe UI Emoji" font-size="16px" fill="#000000" text-anchor="start" style="white-space: pre;" direction="ltr">startPoint</text></g><g transform="translate(640.2408713482954 67.32336851429994) rotate(0 33.5 10.5)"><text x="0" y="15" font-family="Virgil, Segoe UI Emoji" font-size="16px" fill="#000000" text-anchor="start" style="white-space: pre;" direction="ltr">endPoint</text></g><g transform="translate(603.2940471093167 452.5549569092292) rotate(0 109.5 12)"><text x="0" y="17" font-family="Virgil, Segoe UI Emoji" font-size="16px" fill="#000000" text-anchor="start" style="white-space: pre;" direction="ltr">endPoint.lng，startPoint.lat</text></g><g stroke-linecap="round" transform="translate(674.5517790795803 99.00581243345971) rotate(0 4.991453676536253 4.737974936443749)"><path d="M-0.74 3.33 C-0.74 3.33, -0.74 3.33, -0.74 3.33 M-0.74 3.33 C-0.74 3.33, -0.74 3.33, -0.74 3.33 M0.4 5.76 C4.2 4.6, 2.99 3.56, 5.83 1.77 M1.44 7.34 C3.68 5.3, 4.83 2.6, 7.44 0.69 M2.88 8.87 C7.57 7.76, 7.51 6.32, 11.84 2.72 M4.37 10.77 C5.37 8.11, 7.87 4.77, 10.63 2.06 M3.08 10.18 C3.08 10.18, 3.08 10.18, 3.08 10.18 M3.08 10.18 C3.08 10.18, 3.08 10.18, 3.08 10.18 M5.9 7.65 C5.05 6.35, 4.63 6.48, 1.67 3.13 M6.38 7.92 C4.96 7.04, 2.99 3.98, 0.16 1.87 M8.89 6.29 C7.76 4.46, 6.02 3.17, 1.9 -1.81 M8.69 4.15 C7.6 2.4, 4.46 1.74, 3.5 -0.16" stroke="#15aabf" stroke-width="0.5" fill="none"></path><path d="M9.95 2.32 C10.71 3.12, 8.33 5.07, 8.15 5.51 C7.98 5.96, 9.21 4.28, 8.89 4.99 C8.57 5.69, 7.25 8.89, 6.24 9.72 C5.24 10.56, 3.46 10.19, 2.86 9.99 C2.25 9.79, 3.24 9.64, 2.63 8.54 C2.01 7.45, -0.47 4.47, -0.81 3.42 C-1.15 2.37, -0.6 2.77, 0.6 2.25 C1.81 1.74, 4.86 0.15, 6.42 0.32 C7.98 0.49, 9.66 3.11, 9.96 3.26 C10.27 3.41, 8.41 1.14, 8.25 1.2 M7.86 -1 C9.15 0.22, 9.74 4.2, 10.21 5.59 C10.68 6.99, 11.01 6.38, 10.68 7.37 C10.35 8.36, 9.41 11.22, 8.23 11.55 C7.05 11.89, 4.48 9.89, 3.61 9.39 C2.74 8.89, 4.05 9.27, 3.03 8.56 C2.01 7.85, -2.39 6.05, -2.5 5.13 C-2.61 4.21, 0.76 4.34, 2.37 3.04 C3.98 1.75, 5.89 -2.04, 7.18 -2.66 C8.47 -3.27, 9.87 -1.05, 10.12 -0.64 C10.36 -0.24, 9.2 -0.62, 8.65 -0.22" stroke="#000000" stroke-width="1" fill="none"></path></g><g stroke-linecap="round" transform="translate(268.3821581005375 438.477532847628) rotate(0 4.99145367653631 4.737974936443749)"><path d="M0.46 0.4 C0.46 0.4, 0.46 0.4, 0.46 0.4 M0.46 0.4 C0.46 0.4, 0.46 0.4, 0.46 0.4 M1.07 10.87 C0.36 5.92, 2.49 3.47, 8.04 -0.29 M-0.4 7.61 C2.35 3.85, 3.82 2.7, 7.99 -1.97 M0.44 12.7 C2.56 6.84, 6.49 3.36, 11.32 0.77 M1.45 11.66 C3.97 9.35, 7.44 5.46, 8.8 2.19 M8.78 10.54 C8.47 9.57, 10.92 6.3, 11.09 4.44 M8.12 9.55 C9.46 8.43, 10.58 7.77, 11.84 4.8 M-1.87 8.25 C-1.87 8.25, -1.87 8.25, -1.87 8.25 M-1.87 8.25 C-1.87 8.25, -1.87 8.25, -1.87 8.25 M4.44 7.87 C4.11 6.89, 2.25 7.03, 1.09 5.45 M4.24 8.92 C3.27 6.84, 2.07 6.55, 1.03 5.36 M8.15 6.88 C6.61 5.16, 2.73 2.68, 2.7 1.95 M7.22 5.95 C5.23 4.39, 4.23 2.58, 1.06 -0.3 M9.64 1.86 C7.85 0.24, 6.34 -0.19, 4.7 -2.03 M8.78 1.67 C8.19 0.68, 6.53 0.27, 5.4 -1.73" stroke="#15aabf" stroke-width="0.5" fill="none"></path><path d="M8.93 2.49 C9.56 2.78, 9.3 1.97, 9.59 2.98 C9.89 3.98, 11.26 7.74, 10.7 8.52 C10.15 9.3, 7.64 7.31, 6.27 7.66 C4.9 8.02, 3.81 10.5, 2.49 10.64 C1.18 10.77, -1.58 9.63, -1.62 8.47 C-1.66 7.31, 1.9 5.01, 2.26 3.66 C2.61 2.3, -0.25 1.22, 0.51 0.35 C1.27 -0.52, 5.39 -2.03, 6.83 -1.58 C8.27 -1.13, 9.01 1.15, 9.17 3.05 C9.32 4.96, 7.48 9.44, 7.74 9.85 M5.89 -1.86 C6.5 -2.09, 8.76 0.76, 9.04 1.7 C9.31 2.63, 7.32 3.08, 7.52 3.76 C7.72 4.44, 10.78 4.61, 10.24 5.76 C9.71 6.91, 5.89 10.39, 4.32 10.67 C2.74 10.95, 1.17 8.71, 0.78 7.45 C0.4 6.19, 2.28 4.31, 1.98 3.11 C1.69 1.91, -1.59 1.06, -0.99 0.25 C-0.39 -0.55, 4.03 -1.78, 5.58 -1.73 C7.13 -1.67, 8.39 0, 8.31 0.6 C8.23 1.2, 5.29 1.63, 5.12 1.88" stroke="#000000" stroke-width="1" fill="none"></path></g><g stroke-linecap="round" transform="translate(269.32393349741005 99.87165839907755) rotate(0 4.99145367653631 4.737974936443749)"><path d="M0.29 0.25 C0.29 0.25, 0.29 0.25, 0.29 0.25 M0.29 0.25 C0.29 0.25, 0.29 0.25, 0.29 0.25 M2.72 4.77 C2.93 2.9, 4.5 1.92, 6.58 0.26 M0.96 5.4 C1.66 3.49, 3.77 3.11, 5.68 0.02 M4.66 7.63 C4.26 7.03, 5.15 6.71, 6.62 4.06 M4.1 8.36 C5.06 8.12, 5.17 6.44, 7.4 3.76 M4.96 11.06 C4.96 11.06, 4.96 11.06, 4.96 11.06 M4.96 11.06 C4.96 11.06, 4.96 11.06, 4.96 11.06 M7.06 8.66 C4.87 4.36, 2.73 3.17, 3.01 3.47 M7.7 8.59 C5.62 6.69, 4.05 4.95, 1.61 2.4 M9.06 4.72 C8.05 3.42, 7.77 3.07, 7.32 2.79 M9.69 4.47 C8.31 3.82, 8.02 3.06, 7.27 2.45 M7.76 3.07 C6.42 0.35, 4.34 0.87, 3.23 -2.21 M7.03 1.96 C5.09 0.98, 3.1 -1.13, 1.48 -2.04" stroke="#15aabf" stroke-width="0.5" fill="none"></path><path d="M6.23 -0.38 C6.85 -0.1, 6.06 2.32, 6.82 3.13 C7.58 3.95, 10.69 3.83, 10.79 4.52 C10.89 5.21, 7.86 6.8, 7.41 7.27 C6.97 7.74, 8.51 6.69, 8.1 7.33 C7.69 7.96, 6.16 11.46, 4.96 11.06 C3.76 10.67, 1.79 6, 0.93 4.94 C0.07 3.88, -0.11 5.5, -0.2 4.69 C-0.28 3.89, -0.87 0.5, 0.42 0.1 C1.71 -0.3, 5.87 0.84, 7.56 2.28 C9.24 3.73, 10.2 8.51, 10.53 8.78 M4.91 -0.01 C5.24 0.22, 8.01 -0.79, 8.43 0.65 C8.85 2.1, 8.04 7.32, 7.43 8.65 C6.82 9.97, 5.07 8.59, 4.76 8.62 C4.45 8.66, 6.25 8.64, 5.58 8.86 C4.92 9.08, 2.03 10.9, 0.78 9.93 C-0.46 8.95, -1.66 4.05, -1.9 2.99 C-2.14 1.94, -1.3 3.91, -0.64 3.62 C0.01 3.32, 0.7 2.06, 2.04 1.2 C3.37 0.34, 6.3 -1.48, 7.38 -1.54 C8.46 -1.59, 8.38 0.1, 8.52 0.88" stroke="#000000" stroke-width="1" fill="none"></path></g><g stroke-linecap="round" transform="translate(674.8416378391136 439.5361523860759) rotate(0 4.991453676536253 4.737974936443749)"><path d="M-0.55 2.17 C-0.55 2.17, -0.55 2.17, -0.55 2.17 M-0.55 2.17 C-0.55 2.17, -0.55 2.17, -0.55 2.17 M-0.8 8.7 C2.23 4.77, 5.33 2.36, 6.54 1.68 M0.05 7.17 C1.61 4.98, 3.02 4.03, 6.41 0.34 M1.97 10.37 C3.94 9.88, 7.21 8.02, 10.83 3.28 M2.22 9.46 C4.68 7.97, 6.79 6.88, 11.01 2.62 M3.01 10.25 C3.01 10.25, 3.01 10.25, 3.01 10.25 M3.01 10.25 C3.01 10.25, 3.01 10.25, 3.01 10.25 M9.75 10.33 C6.38 8.25, 4.04 6.44, 2.87 4.4 M8.3 9.12 C5.81 7.08, 4.15 5.32, 1.48 4.34 M11.56 7.45 C8.83 4.99, 8.87 3.32, 2.01 -0.54 M9.77 6.03 C9.97 5.53, 6.96 4.11, 4.25 0.63" stroke="#15aabf" stroke-width="0.5" fill="none"></path><path d="M5.47 -0.5 C6.6 -0.16, 9.42 1.57, 10.28 2.61 C11.13 3.65, 10.68 4.96, 10.61 5.74 C10.54 6.52, 10.4 6.37, 9.86 7.29 C9.31 8.2, 8.44 10.69, 7.36 11.23 C6.27 11.77, 4.65 11.37, 3.34 10.53 C2.03 9.7, 0.14 7.64, -0.48 6.22 C-1.1 4.79, -0.82 2.62, -0.39 1.97 C0.05 1.33, 1 2.85, 2.15 2.36 C3.3 1.88, 5.32 -0.36, 6.52 -0.94 C7.71 -1.51, 9.4 -1.57, 9.33 -1.09 M1.55 2.5 C2.6 1.8, 7.15 0.55, 8.02 0.49 C8.89 0.42, 6.11 1.75, 6.77 2.1 C7.43 2.45, 11.34 1.43, 11.97 2.58 C12.61 3.74, 11.12 8.31, 10.56 9.03 C10 9.76, 9.5 6.65, 8.62 6.93 C7.74 7.22, 6.35 10.88, 5.26 10.72 C4.16 10.56, 2.85 6.89, 2.05 5.97 C1.24 5.04, -0.12 5.98, 0.44 5.15 C1 4.31, 5.1 2.14, 5.4 0.95 C5.71 -0.24, 2.85 -1.59, 2.25 -1.97" stroke="#000000" stroke-width="1" fill="none"></path></g><g transform="translate(363.6849461923648 547.855497883688) rotate(0 122.50000000000006 12)"><text x="0" y="17" font-family="Virgil, Segoe UI Emoji" font-size="16px" fill="#000000" text-anchor="start" style="white-space: pre;" direction="ltr">地面叠加层 bounds 显示区域图示</text></g></svg>