<?xml version="1.0" encoding="UTF-8"?>
<!DOCTYPE svg PUBLIC "-//W3C//DTD SVG 1.1//EN" "http://www.w3.org/Graphics/SVG/1.1/DTD/svg11.dtd">
<!-- Creator: CorelDRAW 2018 (评估版) -->
<svg xmlns="http://www.w3.org/2000/svg" xml:space="preserve" width="69.0481mm" height="34.4303mm" version="1.1" style="shape-rendering:geometricPrecision; text-rendering:geometricPrecision; image-rendering:optimizeQuality; fill-rule:evenodd; clip-rule:evenodd"
viewBox="0 0 1349.84 673.09"
 xmlns:xlink="http://www.w3.org/1999/xlink">
 <defs>
  <style type="text/css">
   <![CDATA[
    .fil1 {fill:#32475B}
    .fil0 {fill:#3FB27F}
   ]]>
  </style>
 </defs>
 <g id="图层_x0020_1">
  <metadata id="CorelCorpID_0Corel-Layer"/>
  <g id="_856791232">
   <path class="fil0" d="M666.72 354.47c0,0 132.92,-125.96 132.92,-221.53 0,-73.41 -59.53,-132.93 -132.92,-132.93 -73.4,0 -132.92,59.52 -132.92,132.92 0,95.58 132.93,221.54 132.93,221.54l0 0zm-0.76 -156.11c-36.7,0.01 -66.47,-29.76 -66.47,-66.46 0,-36.7 29.77,-66.47 66.47,-66.47 36.7,0 66.47,29.77 66.47,66.47 0,36.7 -29.77,66.47 -66.47,66.47l0 -0.01z"/>
   <path class="fil0" d="M2.08 321.8l661.62 350.82c1.17,0.62 2.47,0.63 3.64,0.01l680.4 -355.82c1.44,-0.75 2.23,-2.21 2.08,-3.83 -0.15,-1.61 -1.2,-2.91 -2.75,-3.38l-62.13 -18.9c-0.99,-0.3 -1.94,-0.22 -2.86,0.23l-601.74 296.07c-1.13,0.56 -2.33,0.55 -3.46,-0l-596.95 -294.76c-0.93,-0.46 -1.88,-0.54 -2.87,-0.24l-74.28 22.6c-1.55,0.47 -2.6,1.76 -2.75,3.37 -0.15,1.61 0.63,3.07 2.06,3.83z"/>
   <path class="fil1" d="M235.88 247.26c141.18,66.39 282.37,132.77 423.55,199.15 1.08,0.51 2.22,0.51 3.3,0.01l446.16 -206.18c1.49,-0.69 2.36,-2.14 2.26,-3.77 -0.09,-1.64 -1.13,-2.98 -2.69,-3.49l-58.06 -19c-0.95,-0.31 -1.87,-0.27 -2.78,0.13l-382.09 167.04c-1.04,0.46 -2.11,0.45 -3.15,-0.01l-362.49 -160.88c-0.92,-0.41 -1.85,-0.46 -2.8,-0.14l-60.77 19.89c-1.55,0.51 -2.59,1.84 -2.69,3.48 -0.1,1.63 0.76,3.08 2.24,3.78z"/>
  </g>
 </g>
</svg>
