<?xml version="1.0" encoding="UTF-8"?>
<!DOCTYPE svg PUBLIC "-//W3C//DTD SVG 1.1//EN" "http://www.w3.org/Graphics/SVG/1.1/DTD/svg11.dtd">
<!-- Creator: CorelDRAW 2018 (评估版) -->
<svg xmlns="http://www.w3.org/2000/svg" xml:space="preserve" width="70.0058mm" height="44.2893mm" version="1.1" style="shape-rendering:geometricPrecision; text-rendering:geometricPrecision; image-rendering:optimizeQuality; fill-rule:evenodd; clip-rule:evenodd"
viewBox="0 0 537.52 340.06"
 xmlns:xlink="http://www.w3.org/1999/xlink">
 <defs>
  <style type="text/css">
   <![CDATA[
    .fil1 {fill:#32475B}
    .fil0 {fill:#3FB27F}
    .fil2 {fill:white}
   ]]>
  </style>
    <clipPath id="id0">
     <path d="M-0 132.85l537.52 0 0 207.22 -537.52 0 0 -207.22z"/>
    </clipPath>
    <clipPath id="id1">
     <path d="M94.81 112.98l346.08 0 0 116.85 -346.08 0 0 -116.85z"/>
    </clipPath>
    <clipPath id="id2">
     <path d="M181.28 0l164.73 0 0 195.72 -164.73 0 0 -195.72z"/>
    </clipPath>
 </defs>
 <g id="图层_x0020_1">
  <metadata id="CorelCorpID_0Corel-Layer"/>
  <g id="_822431384">
   <g style="clip-path:url(#id0)">
    <image x="-0" y="132.85" width="537.52" height="207.22" xlink:href="logo-shadow_Images\logo-shadow_ImgID1.png"/>
   </g>
  </g>
  <path class="fil0" d="M24.26 168.18l235.87 146.38c3.39,2.1 7.08,2.12 10.48,0.04l242.65 -148.53c0.24,-0.15 0.37,-0.43 0.35,-0.75 -0.02,-0.32 -0.2,-0.58 -0.45,-0.67l-20.49 -7.3c-2.84,-1.01 -5.56,-0.75 -8.22,0.79l-209.39 120.58c-3.25,1.87 -6.69,1.87 -9.94,-0.01 -69.22,-40 -138.44,-80.01 -207.65,-120.01 -2.68,-1.55 -5.4,-1.81 -8.25,-0.79 -8.28,2.96 -16.56,5.9 -24.85,8.84 -0.26,0.09 -0.43,0.34 -0.45,0.66 -0.03,0.32 0.11,0.61 0.34,0.76z"/>
  <g id="_822423632">
   <g style="clip-path:url(#id1)">
    <image x="94.81" y="112.98" width="346.08" height="116.85" xlink:href="logo-shadow_Images\logo-shadow_ImgID2.png"/>
   </g>
  </g>
  <path class="fil1" d="M108.68 138.15c50.2,25.69 100.41,51.37 150.61,77.05 2.96,1.51 5.96,1.52 8.93,0.03l158.79 -79.84c0.25,-0.13 0.41,-0.42 0.39,-0.75 -0.01,-0.33 -0.19,-0.6 -0.46,-0.69l-19.36 -6.89c-2.57,-0.91 -5,-0.78 -7.49,0.4l-131.05 62.33c-2.84,1.35 -5.67,1.34 -8.51,-0.03l-123.96 -59.86c-2.5,-1.21 -4.96,-1.35 -7.54,-0.43l-20.29 7.23c-0.26,0.09 -0.44,0.36 -0.46,0.69 -0.02,0.33 0.13,0.62 0.39,0.75z"/>
  <g id="_822418328">
   <g style="clip-path:url(#id2)">
    <image x="181.28" y="0" width="164.73" height="195.72" xlink:href="logo-shadow_Images\logo-shadow_ImgID3.png"/>
   </g>
  </g>
  <g id="_823857744">
   <path class="fil0" d="M263.86 176.72c25.25,-13.56 55.46,-50.42 61.46,-78.9 8.93,-42.38 -18.57,-79.07 -61.49,-78.81 -39.95,0.24 -71.08,34.48 -61.94,77.95 6.82,32.47 41.48,69.25 61.97,79.76z"/>
   <circle class="fil2" cx="264.35" cy="81.58" r="33.55"/>
  </g>
 </g>
</svg>
