<svg width="265" height="168" viewBox="0 0 265 168" fill="none" xmlns="http://www.w3.org/2000/svg">
<path fill-rule="evenodd" clip-rule="evenodd" d="M11.9417 82.7857L128.046 154.84C129.715 155.873 131.531 155.883 133.205 154.859L252.647 81.7471C252.765 81.6732 252.829 81.5354 252.819 81.3779C252.81 81.2204 252.721 81.0924 252.598 81.0481L242.512 77.4547C241.114 76.9576 239.775 77.0855 238.466 77.8436L135.396 137.198C133.796 138.118 132.102 138.118 130.503 137.193C96.4298 117.503 62.357 97.8088 28.289 78.1192C26.9698 77.3563 25.6309 77.2283 24.2281 77.7304C20.1523 79.1874 16.0766 80.6346 11.9959 82.0818C11.8679 82.1261 11.7842 82.2491 11.7744 82.4067C11.7596 82.5642 11.8285 82.7069 11.9417 82.7808V82.7857Z" fill="#3FB27F"/>
<path fill-rule="evenodd" clip-rule="evenodd" d="M53.4966 68.0037C78.2071 80.6494 102.922 93.2901 127.633 105.931C129.09 106.674 130.567 106.679 132.029 105.946L210.191 66.6451C210.314 66.5811 210.393 66.4384 210.383 66.2759C210.378 66.1135 210.29 65.9806 210.157 65.9363L200.627 62.5448C199.362 62.0968 198.166 62.1608 196.94 62.7417L132.432 93.423C131.034 94.0875 129.641 94.0826 128.243 93.4082L67.2252 63.9427C65.9946 63.3471 64.7837 63.2782 63.5137 63.7311L53.5262 67.29C53.3982 67.3343 53.3096 67.4672 53.2997 67.6296C53.2899 67.792 53.3637 67.9348 53.4917 67.9988L53.4966 68.0037Z" fill="#32475B"/>
<path fill-rule="evenodd" clip-rule="evenodd" d="M160.136 48.1517C157.182 62.1707 142.312 80.3146 129.882 86.9894C119.796 81.816 102.735 63.7114 99.3783 47.7283C94.8793 26.3307 110.203 9.47637 129.868 9.35824C150.995 9.23025 164.531 27.2905 160.136 48.1517ZM146.638 40.1577C146.638 49.2785 139.244 56.6723 130.124 56.6723C121.003 56.6723 113.609 49.2785 113.609 40.1577C113.609 31.0369 121.003 23.643 130.124 23.643C139.244 23.643 146.638 31.0369 146.638 40.1577Z" fill="#3FB27F"/>
</svg>
