<?xml version="1.0" encoding="UTF-8"?>
<!DOCTYPE svg PUBLIC "-//W3C//DTD SVG 1.1//EN" "http://www.w3.org/Graphics/SVG/1.1/DTD/svg11.dtd">
<!-- Creator: CorelDRAW 2018 (评估版) -->
<svg xmlns="http://www.w3.org/2000/svg" xml:space="preserve" width="75.9341mm" height="41.3163mm" version="1.1" style="shape-rendering:geometricPrecision; text-rendering:geometricPrecision; image-rendering:optimizeQuality; fill-rule:evenodd; clip-rule:evenodd"
viewBox="0 0 1130.58 615.16"
 xmlns:xlink="http://www.w3.org/1999/xlink">
 <defs>
  <style type="text/css">
   <![CDATA[
    .fil1 {fill:#32475B}
    .fil0 {fill:#3FB27F}
   ]]>
  </style>
    <clipPath id="id0">
     <path d="M-0 0l1130.58 0 0 615.16 -1130.58 0 0 -615.16z"/>
    </clipPath>
 </defs>
 <g id="图层_x0020_1">
  <metadata id="CorelCorpID_0Corel-Layer"/>
  <g id="_856772752">
   <g style="clip-path:url(#id0)">
    <image x="-0" y="0" width="1130.58" height="615.16" xlink:href="logo-shadow_Images\logo-shadow_ImgID1.png"/>
   </g>
  </g>
  <g id="_856773496">
   <path class="fil0" d="M559.04 321.23c0,0 101.23,-95.93 101.23,-168.72 0,-55.91 -45.34,-101.24 -101.24,-101.24 -55.9,0 -101.24,45.33 -101.24,101.24 0,72.79 101.24,168.73 101.24,168.73l0 0zm-0.58 -118.89c-27.95,0.01 -50.62,-22.67 -50.62,-50.62 0,-27.95 22.67,-50.63 50.62,-50.63 27.95,0 50.63,22.67 50.63,50.63 0,27.95 -22.67,50.62 -50.63,50.62l0 -0.01z"/>
   <path class="fil0" d="M52.85 296.35l503.9 267.19c0.89,0.47 1.88,0.48 2.77,0.01l518.2 -270.99c1.09,-0.57 1.7,-1.69 1.59,-2.92 -0.11,-1.23 -0.92,-2.21 -2.1,-2.57l-47.32 -14.4c-0.75,-0.23 -1.48,-0.17 -2.18,0.18l-458.29 225.49c-0.86,0.42 -1.78,0.42 -2.63,-0l-454.65 -224.49c-0.71,-0.35 -1.43,-0.41 -2.19,-0.18l-56.57 17.21c-1.18,0.36 -1.98,1.34 -2.1,2.56 -0.12,1.23 0.48,2.34 1.57,2.92z"/>
   <path class="fil1" d="M230.91 239.58c107.53,50.56 215.05,101.12 322.58,151.68 0.82,0.39 1.69,0.39 2.52,0.01l339.8 -157.03c1.13,-0.52 1.8,-1.63 1.72,-2.88 -0.07,-1.25 -0.86,-2.27 -2.05,-2.66l-44.22 -14.47c-0.72,-0.24 -1.42,-0.2 -2.12,0.1l-291 127.22c-0.79,0.35 -1.61,0.35 -2.4,-0.01l-276.08 -122.53c-0.7,-0.31 -1.41,-0.35 -2.14,-0.11l-46.28 15.15c-1.18,0.39 -1.97,1.4 -2.05,2.65 -0.08,1.24 0.58,2.35 1.7,2.88z"/>
  </g>
 </g>
</svg>
